<svg width="38" height="30" viewBox="0 0 38 30" fill="none" xmlns="http://www.w3.org/2000/svg">
<g filter="url(#filter0_d_5_220)">
<path d="M15.5858 20.8951L15.5777 20.8916L15.552 20.8776C15.4018 20.795 15.2529 20.7102 15.1052 20.6232C13.3293 19.568 11.6697 18.3284 10.1538 16.9249C7.46933 14.4201 4.625 10.7031 4.625 6.12508C4.625 2.70908 7.49967 8.27764e-05 10.9693 8.27764e-05C11.9339 -0.00464155 12.8871 0.208147 13.758 0.622622C14.629 1.0371 15.3953 1.6426 16 2.39408C16.6048 1.64244 17.3713 1.03685 18.2425 0.622368C19.1137 0.207886 20.0671 -0.00481723 21.0318 8.27764e-05C24.5003 8.27764e-05 27.375 2.70908 27.375 6.12508C27.375 10.7042 24.5307 14.4212 21.8462 16.9237C20.3304 18.3272 18.6707 19.5669 16.8948 20.6221C16.7471 20.7094 16.5982 20.7946 16.448 20.8776L16.4223 20.8916L16.4142 20.8962L16.4107 20.8974C16.2842 20.9644 16.1432 20.9995 16 20.9995C15.8568 20.9995 15.7158 20.9644 15.5893 20.8974L15.5858 20.8951Z" fill="white"/>
<path d="M25.8933 18.9668L29.0833 12.7335H26.8833V8.70012L23.5833 14.9335H25.8933V18.9668ZM26.3333 21.1668C25.3189 21.1668 24.3656 20.9743 23.4733 20.5893C22.5811 20.2043 21.805 19.6818 21.145 19.0218C20.485 18.3618 19.9625 17.5857 19.5775 16.6935C19.1925 15.8012 19 14.8479 19 13.8335C19 12.819 19.1925 11.8657 19.5775 10.9735C19.9625 10.0812 20.485 9.30512 21.145 8.64512C21.805 7.98512 22.5811 7.46262 23.4733 7.07762C24.3656 6.69262 25.3189 6.50012 26.3333 6.50012C27.3478 6.50012 28.3011 6.69262 29.1933 7.07762C30.0856 7.46262 30.8617 7.98512 31.5217 8.64512C32.1817 9.30512 32.7042 10.0812 33.0892 10.9735C33.4742 11.8657 33.6667 12.819 33.6667 13.8335C33.6667 14.8479 33.4742 15.8012 33.0892 16.6935C32.7042 17.5857 32.1817 18.3618 31.5217 19.0218C30.8617 19.6818 30.0856 20.2043 29.1933 20.5893C28.3011 20.9743 27.3478 21.1668 26.3333 21.1668Z" fill="#894189"/>
<path d="M26.2667 18.5001L29.1667 12.8334H27.1667V9.16675L24.1667 14.8334H26.2667V18.5001ZM26.6667 20.5001C25.7444 20.5001 24.8778 20.3251 24.0667 19.9751C23.2556 19.6251 22.55 19.1501 21.95 18.5501C21.35 17.9501 20.875 17.2445 20.525 16.4334C20.175 15.6223 20 14.7556 20 13.8334C20 12.9112 20.175 12.0445 20.525 11.2334C20.875 10.4223 21.35 9.71675 21.95 9.11675C22.55 8.51675 23.2556 8.04175 24.0667 7.69175C24.8778 7.34175 25.7444 7.16675 26.6667 7.16675C27.5889 7.16675 28.4556 7.34175 29.2667 7.69175C30.0778 8.04175 30.7833 8.51675 31.3833 9.11675C31.9833 9.71675 32.4583 10.4223 32.8083 11.2334C33.1583 12.0445 33.3333 12.9112 33.3333 13.8334C33.3333 14.7556 33.1583 15.6223 32.8083 16.4334C32.4583 17.2445 31.9833 17.9501 31.3833 18.5501C30.7833 19.1501 30.0778 19.6251 29.2667 19.9751C28.4556 20.3251 27.5889 20.5001 26.6667 20.5001Z" fill="white"/>
</g>
<defs>
<filter id="filter0_d_5_220" x="0.625" y="0" width="37.0417" height="29.1668" filterUnits="userSpaceOnUse" color-interpolation-filters="sRGB">
<feFlood flood-opacity="0" result="BackgroundImageFix"/>
<feColorMatrix in="SourceAlpha" type="matrix" values="0 0 0 0 0 0 0 0 0 0 0 0 0 0 0 0 0 0 127 0" result="hardAlpha"/>
<feOffset dy="4"/>
<feGaussianBlur stdDeviation="2"/>
<feComposite in2="hardAlpha" operator="out"/>
<feColorMatrix type="matrix" values="0 0 0 0 0 0 0 0 0 0 0 0 0 0 0 0 0 0 0.25 0"/>
<feBlend mode="normal" in2="BackgroundImageFix" result="effect1_dropShadow_5_220"/>
<feBlend mode="normal" in="SourceGraphic" in2="effect1_dropShadow_5_220" result="shape"/>
</filter>
</defs>
</svg>
